Coordinates
version=1
nRows=15
nColumns=38
inDegrees=yes

Units are S.I. units (second, meters, Newtons, ...)
Angles are in degrees.

endheader
time	pelvis_tilt	pelvis_list	pelvis_rotation	pelvis_tx	pelvis_ty	pelvis_tz	hip_flexion_r	hip_adduction_r	hip_rotation_r	knee_angle_r	ankle_angle_r	subtalar_angle_r	mtp_angle_r	hip_flexion_l	hip_adduction_l	hip_rotation_l	knee_angle_l	ankle_angle_l	subtalar_angle_l	mtp_angle_l	lumbar_extension	lumbar_bending	lumbar_rotation	arm_flex_r	arm_add_r	arm_rot_r	elbow_flex_r	pro_sup_r	wrist_flex_r	wrist_dev_r	arm_flex_l	arm_add_l	arm_rot_l	elbow_flex_l	pro_sup_l	wrist_flex_l	wrist_dev_l
      2.70000000	     -7.71380372	      6.33339047	      2.03248778	     -0.05574670	      0.90365269	      2.58970743	    -16.66033218	     -7.20544489	     -7.96240231	    -13.09941228	    -32.32120166	      0.00000000	      0.00000000	     38.77067161	      9.63565049	      6.99264101	    -35.17462759	     -3.07340014	      0.00000000	      0.00000000	     -2.16463904	     -6.21785892	     14.27440040	     25.61452585	    -11.48934159	     26.63171454	    122.91321267	     87.88392867	      0.00000000	      0.00000000	    -34.44571575	    -20.43541497	      0.68781324	    115.14764327	     94.12992207	      0.00000000	      0.00000000
      2.71000000	     -7.93718064	      5.82240024	      1.75539490	     -0.05330470	      0.90748842	      2.58905167	    -17.33325513	     -6.83861720	     -7.53418079	    -14.01457621	    -33.83510703	      0.00000000	      0.00000000	     37.54862979	      8.59368280	      7.82346234	    -28.67317324	     -3.83726871	      0.00000000	      0.00000000	     -1.62890763	     -5.81017977	     15.21436107	     25.78160978	    -11.44602749	     27.71575023	    124.42741702	     88.55637727	      0.00000000	      0.00000000	    -36.03833698	    -20.22931334	     -0.91449251	    115.37359318	     94.38711108	      0.00000000	      0.00000000
      2.72000000	     -8.25137008	      5.11948890	      1.30865868	     -0.05105968	      0.90997108	      2.58880426	    -17.48208679	     -6.30620599	     -6.50597769	    -15.81488243	    -34.31464721	      0.00000000	      0.00000000	     36.59109805	      7.26556117	      8.36446002	    -22.89873944	     -4.50717699	      0.00000000	      0.00000000	     -1.00763286	     -5.21893245	     16.20155065	     25.74606063	    -11.41283545	     28.76639450	    125.87031050	     89.56658851	      0.00000000	      0.00000000	    -37.46827535	    -19.98316234	     -2.39353135	    115.53410414	     94.58676927	      0.00000000	      0.00000000
      2.73000000	     -8.61283236	      4.35611175	      0.74990606	     -0.04893508	      0.91135569	      2.58884044	    -17.18753295	     -5.69079941	     -5.11474835	    -18.36969969	    -34.07614966	      0.00000000	      0.00000000	     35.92092202	      5.83133535	      8.50073506	    -18.06589615	     -5.00279577	      0.00000000	      0.00000000	     -0.36303642	     -4.58015104	     17.18632356	     25.49205802	    -11.40227900	     29.76061904	    127.20308094	     90.81878662	      0.00000000	      0.00000000	    -38.67226775	    -19.76109389	     -3.72280910	    115.62468777	     94.75341292	      0.00000000	      0.00000000
      2.74000000	     -8.96524378	      3.62863881	      0.17086281	     -0.04703815	      0.91185426	      2.58901624	    -16.55825815	     -5.04053222	     -3.62968124	    -21.54408144	    -33.37326412	      0.00000000	      0.00000000	     35.50001678	      4.45804200	      8.20805591	    -14.32779976	     -5.24979409	      0.00000000	      0.00000000	      0.21981992	     -4.00147754	     18.07983665	     25.01379726	    -11.41845694	     30.68129946	    128.37725815	     92.16555403	      0.00000000	      0.00000000	    -39.59855071	    -19.60668603	     -4.86046096	    115.63361131	     94.91808924	      0.00000000	      0.00000000
      2.75000000	     -9.24850399	      2.98354383	     -0.33014342	     -0.04549580	      0.91149800	      2.58915053	    -15.71063496	     -4.38814006	     -2.28848248	    -25.23240245	    -32.35264359	      0.00000000	      0.00000000	     35.25543971	      3.27453096	      7.55811367	    -11.74244151	     -5.19111537	      0.00000000	      0.00000000	      0.65497253	     -3.54583215	     18.78349231	     24.32395197	    -11.45112390	     31.51080755	    129.35093588	     93.43679454	      0.00000000	      0.00000000	    -40.21964836	    -19.54158664	     -5.75673746	    115.54519042	     95.10807195	      0.00000000	      0.00000000
      2.76000000	     -9.40476467	      2.43225297	     -0.67950809	     -0.04429839	      0.91020716	      2.58904286	    -14.74091709	     -3.76632799	     -1.25283368	    -29.35434074	    -31.07643723	      0.00000000	      0.00000000	     35.09805484	      2.35730154	      6.69373528	    -10.25796848	     -4.80770967	      0.00000000	      0.00000000	      0.88211907	     -3.22876982	     19.22326769	     23.45528980	    -11.48257927	     32.22795590	    130.09900081	     94.47704873	      0.00000000	      0.00000000	    -40.52804894	    -19.57863393	     -6.38202872	    115.35227959	     95.33811611	      0.00000000	      0.00000000
      2.77000000	     -9.39245082	      1.98145099	     -0.84931569	     -0.04334521	      0.90797382	      2.58858126	    -13.71325637	     -3.21016905	     -0.58880040	    -33.83405254	    -29.58205413	      0.00000000	      0.00000000	     34.93551456	      1.73118387	      5.79127022	     -9.71741839	     -4.14436742	      0.00000000	      0.00000000	      0.88064821	     -3.03841946	     19.36543597	     22.45158801	    -11.50230043	     32.81334546	    130.61067031	     95.18209731	      0.00000000	      0.00000000	    -40.52713471	    -19.72559698	     -6.73560783	    115.06087591	     95.60453403	      0.00000000	      0.00000000
      2.78000000	     -9.20859289	      1.64764782	     -0.85624272	     -0.04256401	      0.90474987	      2.58775469	    -12.66310643	     -2.74919880	     -0.27476565	    -38.58595685	    -27.92920489	      0.00000000	      0.00000000	     34.67151456	      1.38389761	      5.02095873	     -9.88400603	     -3.32902212	      0.00000000	      0.00000000	      0.66374182	     -2.96625186	     19.21082723	     21.35041610	    -11.51807012	     33.26129028	    130.87871515	     95.52332133	      0.00000000	      0.00000000	    -40.23329445	    -19.97632512	     -6.82642776	    114.67931197	     95.88252673	      0.00000000	      0.00000000
      2.79000000	     -8.88794281	      1.44482327	     -0.73616589	     -0.04196216	      0.90042643	      2.58657946	    -11.60052284	     -2.40524346	     -0.23515965	    -43.51583068	    -26.20254199	      0.00000000	      0.00000000	     34.20565446	      1.28350976	      4.50830738	    -10.48284511	     -2.56884949	      0.00000000	      0.00000000	      0.26247315	     -3.01612966	     18.78281721	     20.16941903	    -11.55597461	     33.58730244	    130.89242912	     95.55043979	      0.00000000	      0.00000000	    -39.67908773	    -20.31115979	     -6.66760299	    114.21053174	     96.12692156	      0.00000000	      0.00000000
      2.80000000	     -8.46875894	      1.37229378	     -0.51682403	     -0.04158129	      0.89510714	      2.58506947	    -10.51533057	     -2.19923631	     -0.38973577	    -48.53644880	    -24.47804312	      0.00000000	      0.00000000	     33.45745817	      1.38789994	      4.30042460	    -11.26261006	     -2.10684898	      0.00000000	      0.00000000	     -0.28403758	     -3.18444433	     18.11908118	     18.90898100	    -11.64900358	     33.82346694	    130.64260506	     95.37199198	      0.00000000	      0.00000000	    -38.90418374	    -20.71107781	     -6.29941410	    113.66139018	     96.27717317	      0.00000000	      0.00000000
      2.81000000	     -7.96840123	      1.41810391	     -0.21704993	     -0.04136509	      0.88900958	      2.58320522	     -9.39614486	     -2.15737371	     -0.69686610	    -53.59119278	    -22.78547927	      0.00000000	      0.00000000	     32.41287464	      1.65385021	      4.34830785	    -12.08670629	     -2.13374684	      0.00000000	      0.00000000	     -0.93220284	     -3.44894644	     17.26060930	     17.57150826	    -11.82003724	     34.00632065	    130.13323749	     95.12180412	      0.00000000	      0.00000000	    -37.94375505	    -21.16205879	     -5.79403993	    113.05169249	     96.26817855	      0.00000000	      0.00000000
      2.82000000	     -7.39101875	      1.57441263	      0.14313413	     -0.04113105	      0.88210134	      2.58097512	     -8.24463443	     -2.31448043	     -1.16562058	    -58.66939928	    -21.09540089	      0.00000000	      0.00000000	     31.17331981	      2.05671094	      4.52284051	    -13.03480416	     -2.67495093	      0.00000000	      0.00000000	     -1.65060797	     -3.78905352	     16.22973514	     16.18275578	    -12.07101568	     34.16169428	    129.38416794	     94.92323025	      0.00000000	      0.00000000	    -36.81948286	    -21.64296359	     -5.21846101	    112.40876911	     96.04665696	      0.00000000	      0.00000000
      2.83000000	     -6.74231935	      1.85471781	      0.55470771	     -0.04081971	      0.87408464	      2.57845506	     -7.05246187	     -2.71835292	     -1.82614706	    -63.79816347	    -19.33978878	      0.00000000	      0.00000000	     29.97003057	      2.62097592	      4.67310352	    -14.45243383	     -3.50358047	      0.00000000	      0.00000000	     -2.45570075	     -4.21540599	     15.00798289	     14.79560486	    -12.38736492	     34.28593728	    128.41403954	     94.86167037	      0.00000000	      0.00000000	    -35.52578125	    -22.11973908	     -4.59479485	    111.75946690	     95.58951194	      0.00000000	      0.00000000
      2.84000000	     -6.03925365	      2.30016381	      1.03614304	     -0.04083848	      0.86488986	      2.57569749	     -5.76481219	     -3.42875622	     -2.67855985	    -69.01683596	    -17.45496661	      0.00000000	      0.00000000	     29.10592269	      3.44203616	      4.70679452	    -16.86712178	     -4.14821962	      0.00000000	      0.00000000	     -3.42743771	     -4.77719736	     13.53950453	     13.46884457	    -12.75075481	     34.32990524	    127.21655063	     94.97211429	      0.00000000	      0.00000000	    -34.02050852	    -22.56422581	     -3.89838030	    111.13364027	     94.91845580	      0.00000000	      0.00000000
